<?xml version="1.0" standalone="no"?>
<!DOCTYPE svg PUBLIC "-//W3C//DTD SVG 20010904//EN"
 "http://www.w3.org/TR/2001/REC-SVG-20010904/DTD/svg10.dtd">
<svg version="1.0" xmlns="http://www.w3.org/2000/svg"
 width="512.000000pt" height="512.000000pt" viewBox="0 0 512.000000 512.000000"
 preserveAspectRatio="xMidYMid meet">
<metadata>
Created by potrace 1.14, written by Peter Selinger 2001-2017
</metadata>
<g transform="translate(0.000000,512.000000) scale(0.100000,-0.100000)"
fill="#000000" stroke="none">
<path d="M2379 5115 c-2 -2 -22 -6 -44 -9 -133 -21 -302 -110 -405 -215 -290
-294 -296 -764 -13 -1061 37 -39 43 -52 44 -90 2 -70 2 -70 -41 -70 -39 0 -47
9 -41 44 1 4 -1 16 -4 25 -5 16 -21 17 -163 15 -165 -3 -212 -12 -275 -55 -51
-34 -97 -89 -126 -149 -26 -55 -26 -56 -29 -335 l-3 -280 -303 -305 c-330
-331 -333 -336 -323 -434 l5 -51 -69 -71 c-72 -73 -88 -108 -68 -146 18 -33
206 -216 242 -235 40 -22 141 -22 181 -1 15 8 188 174 382 368 l354 354 -30
31 -30 31 43 42 43 42 127 0 c70 0 127 -3 128 -7 1 -11 1 -146 0 -229 l-1 -71
-238 -239 c-131 -132 -246 -250 -255 -264 -15 -22 -17 -76 -17 -587 0 -310 -1
-563 -2 -563 -2 -1 -21 -3 -43 -6 -97 -13 -186 -56 -250 -121 -92 -93 -128
-182 -128 -326 -1 -151 -26 -141 362 -145 l318 -3 0 23 c1 68 -4 64 86 64 l82
-1 1 -40 1 -40 526 -3 526 -2 28 24 28 24 1 642 1 641 168 169 169 169 4 60 4
61 42 0 41 0 0 -42 0 -42 335 0 c184 -1 364 3 398 7 187 24 343 174 369 357 8
53 7 1947 -1 2005 -8 63 -64 179 -108 224 -50 52 -142 108 -201 122 -28 7 -83
13 -120 14 -37 1 -69 4 -72 6 -2 3 -5 38 -5 79 -6 269 -158 478 -416 571 -52
19 -82 22 -248 23 l-190 1 0 -40 -1 -39 -160 -3 c-88 -1 -169 2 -180 7 -116
53 -195 71 -326 75 -59 2 -109 2 -110 0z m949 -463 c3 -35 7 -42 25 -43 117
-3 139 -19 145 -109 4 -61 0 -68 -42 -61 -29 6 -45 -12 -43 -47 2 -37 2 -37
-40 -40 -41 -3 -42 -3 -48 35 -15 89 -54 167 -103 206 -12 11 -31 36 -42 57
-23 45 -24 45 79 45 l66 -1 3 -42z m-1018 -2992 l75 -39 -40 -1 -40 0 0 -502
c1 -277 -1 -509 -3 -515 -2 -7 -7 -11 -11 -8 -15 9 -142 -25 -186 -49 -25 -14
-48 -26 -50 -26 -3 0 -5 56 -5 125 l0 125 39 0 c22 0 40 5 43 13 2 6 3 170 2
364 l-1 352 73 73 73 73 -26 27 c-15 16 -25 28 -22 28 2 0 38 -18 79 -40z"/>
<path d="M4692 4918 c0 -18 0 -38 -1 -44 -1 -7 -16 -11 -41 -9 l-40 3 0 -90 0
-90 28 2 c49 4 52 1 52 -39 0 -42 8 -48 58 -46 31 2 32 1 32 -40 l0 -43 83 2
82 1 3 43 3 42 42 0 43 0 -1 83 -1 82 -42 3 -42 3 0 44 c0 42 -1 43 -32 43
-53 0 -54 0 -54 40 l1 37 -86 3 -86 3 -1 -33z"/>
<path d="M693 4858 c-33 -8 -49 -31 -164 -233 -131 -230 -128 -223 -108 -268
20 -44 44 -47 327 -47 l267 0 2 58 c3 57 2 59 -116 262 -129 223 -149 245
-208 228z m17 -324 c-22 -43 -44 -63 -56 -51 -3 3 9 30 27 62 23 41 35 53 43
45 8 -8 4 -23 -14 -56z"/>
<path d="M89 3151 c-1 -3 -2 -17 -4 -31 -1 -14 -3 -31 -3 -37 -1 -8 -17 -13
-42 -13 l-40 0 0 -85 0 -85 40 0 c34 0 40 -3 41 -22 3 -64 2 -63 44 -63 40 -1
40 -1 43 -43 l3 -42 85 0 84 0 0 43 0 43 43 0 42 -1 1 70 c2 90 -2 107 -29
104 -54 -4 -57 -1 -57 45 l0 43 -34 -4 c-39 -4 -51 8 -51 52 l0 30 -82 1 c-46
1 -84 -2 -84 -5z"/>
<path d="M4864 2815 l1 -85 42 0 43 0 0 -39 c0 -22 5 -41 13 -43 6 -2 44 -4
82 -3 l70 1 0 84 0 85 -30 1 c-16 1 -35 2 -41 3 -7 0 -11 17 -10 41 l2 40 -86
0 -86 0 0 -85z"/>
<path d="M343 1184 c-2 -6 -3 -44 -1 -85 l3 -74 38 0 c39 1 40 -1 41 -50 1
-28 4 -30 44 -33 l42 -3 0 -43 c0 -42 1 -43 33 -44 17 0 37 0 43 -1 7 -1 12
-19 12 -41 l1 -40 -44 0 -44 0 -3 43 c-3 42 -3 42 -40 39 -35 -2 -38 -1 -39
25 -3 58 -3 58 -46 61 -42 3 -42 3 -45 45 l-3 42 -82 0 -83 0 0 -86 0 -86 28
-1 c59 0 59 0 58 -42 l-2 -40 43 0 42 0 3 -42 c3 -40 5 -43 33 -44 17 -1 36
-2 42 -3 7 -1 12 -14 11 -33 0 -18 0 -37 1 -43 0 -6 35 -10 83 -9 l83 1 2 79
c1 43 2 82 2 87 1 4 39 7 86 7 l85 0 0 85 0 85 -43 0 c-43 0 -44 0 -45 35 -2
48 -8 55 -41 49 -34 -7 -46 7 -43 53 3 33 2 33 -42 33 l-45 0 -3 42 -3 43 -79
0 c-48 0 -80 -4 -83 -11z"/>
<path d="M4254 1052 c-33 -21 -67 -50 -76 -63 -16 -25 -15 -26 28 -55 24 -16
44 -36 44 -44 0 -8 32 -36 70 -62 61 -42 70 -45 82 -31 7 9 24 23 39 32 l25
16 -24 78 c-23 77 -24 78 -52 72 -24 -5 -29 -2 -35 17 -12 44 -27 78 -35 78
-4 0 -34 -17 -66 -38z"/>
<path d="M4534 1077 c-2 -7 -14 -42 -24 -78 -19 -59 -19 -65 -4 -74 38 -23 74
-58 74 -71 0 -8 10 -18 23 -23 13 -5 29 -16 36 -25 7 -9 17 -16 22 -16 11 0
129 91 129 99 0 14 -159 161 -195 180 -46 25 -54 26 -61 8z"/>
<path d="M4096 763 c-7 -7 21 -119 37 -150 21 -39 34 -48 51 -34 9 8 15 1 26
-27 27 -76 30 -77 96 -28 32 25 60 43 62 42 1 -2 -6 -31 -17 -64 l-19 -61 47
-8 c25 -4 50 -6 54 -5 8 2 4 -18 -10 -54 -2 -7 1 -15 7 -19 19 -12 126 -14
164 -4 37 10 43 18 28 34 -5 6 -17 38 -27 73 -17 60 -20 62 -46 58 -26 -4 -29
0 -43 42 l-16 47 -59 -3 -60 -4 -11 41 c-9 36 -14 41 -39 41 -29 0 -51 30 -51
69 0 16 -10 18 -85 17 -47 0 -87 -1 -89 -3z"/>
<path d="M4605 743 c-4 -16 -10 -36 -16 -45 -14 -28 -12 -32 36 -66 26 -18 44
-36 41 -41 -6 -8 115 -101 132 -101 22 0 75 151 63 181 -4 10 -19 15 -49 14
l-42 -2 6 44 6 43 -86 0 c-85 0 -86 0 -91 -27z"/>
</g>
</svg>
